<svg width="34" height="49" viewBox="0 0 34 49" fill="none" xmlns="http://www.w3.org/2000/svg">
<path d="M27.0852 13.75C27.8679 13.75 28.5987 13.43 29.1079 12.904H29.62C29.9077 13.4224 30.4817 13.75 31.0889 13.75C31.9532 13.75 32.75 13.0866 32.75 12.1538V2.84615C32.75 1.91338 31.9532 1.25 31.0889 1.25C30.4815 1.25 29.9074 1.57771 29.6198 2.09633H29.1082C28.599 1.57012 27.8681 1.25 27.0852 1.25H13.8438H11.6001C11.2199 1.25 10.8519 1.32552 10.5156 1.46349C8.47813 1.73111 6.6405 2.23995 5.15307 2.93068C2.95234 3.95265 1.25 5.51478 1.25 7.5C1.25 9.48522 2.95234 11.0473 5.15307 12.0693C6.6405 12.76 8.47813 13.2689 10.5156 13.5365C10.8519 13.6745 11.2199 13.75 11.6001 13.75H13.8438H27.0852Z" fill="#FFE27A" stroke="black" stroke-width="1.5"/>
<line x1="29.75" y1="2" x2="29.75" y2="13" stroke="black" stroke-width="1.5"/>
<line x1="11.75" y1="2" x2="11.75" y2="13" stroke="black" stroke-width="1.5"/>
<path d="M27.0852 30.75C27.8679 30.75 28.5987 30.43 29.1079 29.904H29.62C29.9077 30.4224 30.4817 30.75 31.0889 30.75C31.9532 30.75 32.75 30.0866 32.75 29.1538V19.8462C32.75 18.9134 31.9532 18.25 31.0889 18.25C30.4815 18.25 29.9074 18.5777 29.6198 19.0963H29.1082C28.599 18.5701 27.8681 18.25 27.0852 18.25H13.8438H11.6001C11.2199 18.25 10.8519 18.3255 10.5156 18.4635C8.47813 18.7311 6.6405 19.2399 5.15307 19.9307C2.95234 20.9527 1.25 22.5148 1.25 24.5C1.25 26.4852 2.95234 28.0473 5.15307 29.0693C6.6405 29.76 8.47813 30.2689 10.5156 30.5365C10.8519 30.6745 11.2199 30.75 11.6001 30.75H13.8438H27.0852Z" fill="#FFE27A" stroke="black" stroke-width="1.5"/>
<line x1="29.75" y1="19" x2="29.75" y2="30" stroke="black" stroke-width="1.5"/>
<line x1="11.75" y1="19" x2="11.75" y2="30" stroke="black" stroke-width="1.5"/>
<path d="M27.0852 47.75C27.8679 47.75 28.5987 47.43 29.1079 46.904H29.62C29.9077 47.4224 30.4817 47.75 31.0889 47.75C31.9532 47.75 32.75 47.0866 32.75 46.1538V36.8462C32.75 35.9134 31.9532 35.25 31.0889 35.25C30.4815 35.25 29.9074 35.5777 29.6198 36.0963H29.1082C28.599 35.5701 27.8681 35.25 27.0852 35.25H13.8438H11.6001C11.2199 35.25 10.8519 35.3255 10.5156 35.4635C8.47813 35.7311 6.6405 36.2399 5.15307 36.9307C2.95234 37.9527 1.25 39.5148 1.25 41.5C1.25 43.4852 2.95234 45.0473 5.15307 46.0693C6.6405 46.76 8.47813 47.2689 10.5156 47.5365C10.8519 47.6745 11.2199 47.75 11.6001 47.75H13.8438H27.0852Z" fill="#FFE27A" stroke="black" stroke-width="1.5"/>
<line x1="29.75" y1="36" x2="29.75" y2="47" stroke="black" stroke-width="1.5"/>
<line x1="11.75" y1="36" x2="11.75" y2="47" stroke="black" stroke-width="1.5"/>
</svg>
