<svg width="30" height="30" viewBox="0 0 30 30" fill="none" xmlns="http://www.w3.org/2000/svg">
<path d="M0 9.70813C0 9.1236 0.475126 8.64975 1.06122 8.64975H9.02041C9.60651 8.64975 10.0816 9.1236 10.0816 9.70813V20.2919C10.0816 20.8764 9.60651 21.3502 9.02041 21.3502H1.06122C0.475127 21.3502 0 20.8764 0 20.2919V9.70813Z" fill="black"/>
<path d="M7.95918 9.10413C7.95918 8.81401 8.07859 8.53662 8.28949 8.33681L16.7793 0.293158C17.4553 -0.3473 18.5714 0.130595 18.5714 1.06048V28.9395C18.5714 29.8694 17.4553 30.3473 16.7793 29.7068L8.28949 21.6632C8.07859 21.4634 7.95918 21.186 7.95918 20.8959V9.10413Z" fill="black"/>
<path d="M21 10C23.0581 11.5972 25.9394 15.8333 21 20" stroke="black" stroke-width="2" stroke-linecap="round"/>
<path d="M24 7C27.2929 9.55556 31.903 16.3333 24 23" stroke="black" stroke-width="2" stroke-linecap="round"/>
</svg>
